<?xml version="1.0" encoding="UTF-8"?>
<svg xmlns="http://www.w3.org/2000/svg" xmlns:xlink="http://www.w3.org/1999/xlink" viewBox="0 0 100 100" width="100px" height="100px">
<g id="surface61186583">
<path style=" stroke:none;fill-rule:nonzero;fill:rgb(100%,100%,100%);fill-opacity:1;" d="M 33.328125 10 C 20.464844 10 10 20.472656 10 33.339844 L 10 66.671875 C 10 79.535156 20.472656 90 33.339844 90 L 66.671875 90 C 79.535156 90 90 79.527344 90 66.660156 L 90 33.328125 C 90 20.464844 79.527344 10 66.660156 10 Z M 73.332031 23.332031 C 75.171875 23.332031 76.667969 24.828125 76.667969 26.667969 C 76.667969 28.507812 75.171875 30 73.332031 30 C 71.492188 30 70 28.507812 70 26.667969 C 70 24.828125 71.492188 23.332031 73.332031 23.332031 Z M 50 30 C 61.03125 30 70 38.96875 70 50 C 70 61.03125 61.03125 70 50 70 C 38.96875 70 30 61.03125 30 50 C 30 38.96875 38.96875 30 50 30 Z M 50 36.667969 C 42.636719 36.667969 36.667969 42.636719 36.667969 50 C 36.667969 57.363281 42.636719 63.332031 50 63.332031 C 57.363281 63.332031 63.332031 57.363281 63.332031 50 C 63.332031 42.636719 57.363281 36.667969 50 36.667969 Z M 50 36.667969 "/>
</g>
</svg>
